# xmcd
#
# Track frame offsets:
#	150
#	16936
#	39566
#	55355
#	89269
#	97565
#	123568
#	150842
#	179542
#	246238
#
# Disc length: 3661 seconds
#
# Revision: 0
# Processed by: cddbd v1.5.2PL0 Copyright (c) Steve Scherf et al.
# Submitted via: EZCDAudioConverter 2.1.7.1
#
DISCID=710e4b0a
DTITLE=Greg Foat Group - Dancers At The End Of Time
DYEAR=1900
DGENRE=
TTITLE0=The Dancers At The End Of Time
TTITLE1=The Door Into Summer
TTITLE2=The Hunt
TTITLE3=Hygeia
TTITLE4=The Dancers At The End Of Time (Reprise)
TTITLE5=The Eye Of Horus
TTITLE6=Riff For Raff
TTITLE7=Love Theme
TTITLE8=Rocken End
TTITLE9=The Eye Of Horus [Alternate Take]
EXTD=
EXTT0=
EXTT1=
EXTT2=
EXTT3=
EXTT4=
EXTT5=
EXTT6=
EXTT7=
EXTT8=
EXTT9=
PLAYORDER=
